<?xml version="1.0" encoding="UTF-8" standalone="no"?>
<svg
   xmlns:dc="http://purl.org/dc/elements/1.1/"
   xmlns:cc="http://creativecommons.org/ns#"
   xmlns:rdf="http://www.w3.org/1999/02/22-rdf-syntax-ns#"
   xmlns:svg="http://www.w3.org/2000/svg"
   xmlns="http://www.w3.org/2000/svg"
   xmlns:sodipodi="http://sodipodi.sourceforge.net/DTD/sodipodi-0.dtd"
   xmlns:inkscape="http://www.inkscape.org/namespaces/inkscape"
   width="160.46651mm"
   height="47.572906mm"
   viewBox="0 0 160.46651 47.572907"
   version="1.1"
   id="svg8"
   inkscape:version="1.0.2 (e86c8708, 2021-01-15)"
   sodipodi:docname="aenergie_logo.svg">
  <defs
     id="defs2" />
  <sodipodi:namedview
     id="base"
     pagecolor="#ffffff"
     bordercolor="#666666"
     borderopacity="1.0"
     inkscape:pageopacity="0.0"
     inkscape:pageshadow="2"
     inkscape:zoom="1.369754"
     inkscape:cx="310.38489"
     inkscape:cy="325.84486"
     inkscape:document-units="mm"
     inkscape:current-layer="g1172"
     inkscape:document-rotation="0"
     showgrid="false"
     inkscape:window-width="1786"
     inkscape:window-height="1214"
     inkscape:window-x="2008"
     inkscape:window-y="25"
     inkscape:window-maximized="0"
     units="mm"
     fit-margin-top="0"
     fit-margin-left="0"
     fit-margin-right="0"
     fit-margin-bottom="0" />
  <metadata
     id="metadata5">
    <rdf:RDF>
      <cc:Work
         rdf:about="">
        <dc:format>image/svg+xml</dc:format>
        <dc:type
           rdf:resource="http://purl.org/dc/dcmitype/StillImage" />
        <dc:title></dc:title>
      </cc:Work>
    </rdf:RDF>
  </metadata>
  <g
     inkscape:label="Ebene 1"
     inkscape:groupmode="layer"
     id="layer1"
     transform="translate(-1.9890875,49.580398)">
    <g
       id="g1172">
      <path
         d="m 9.4992385,-11.495307 q -2.427315,0 -4.107762,-0.869717 -1.680448,-0.889482 -2.551791,-2.352188 -0.850598,-1.462705 -0.850598,-3.221905 0,-1.54177 0.539404,-2.76728 0.539403,-1.245276 1.659701,-2.134759 1.120299,-0.909249 2.904478,-1.482471 1.348508,-0.415092 3.1534325,-0.751119 1.825672,-0.336027 3.941791,-0.612755 2.136866,-0.296494 4.460448,-0.632521 l -1.784179,0.968548 q 0.02075,-2.213824 -1.037313,-3.261437 -1.05806,-1.047614 -3.568359,-1.047614 -1.514477,0 -2.9252235,0.672054 -1.410746,0.672054 -1.970896,2.312655 l -4.564179,-1.363873 q 0.829851,-2.707981 3.153434,-4.348583 2.344327,-1.640602 6.3068655,-1.640602 2.987462,0 5.248805,0.929015 2.282091,0.929016 3.381642,3.044008 0.601642,1.126679 0.72612,2.312656 0.124479,1.166211 0.124479,2.549852 v 13.105047 h -4.377463 v -4.625311 l 0.726119,0.751119 q -1.514478,2.312656 -3.547612,3.399801 -2.012388,1.06738 -5.0413435,1.06738 z m 0.9958195,-3.795127 q 1.701194,0 2.904478,-0.573223 1.203284,-0.573222 1.908658,-1.403406 0.726118,-0.830184 0.975073,-1.561536 0.39418,-0.909249 0.435672,-2.07546 0.06224,-1.185978 0.06224,-1.91733 l 1.535224,0.434858 q -2.261344,0.336026 -3.879553,0.592988 -1.618208,0.256963 -2.78,0.494158 -1.161791,0.217429 -2.0538805,0.494157 -0.871342,0.296494 -1.472985,0.69182 -0.601642,0.395326 -0.933581,0.909249 -0.311195,0.513923 -0.311195,1.205743 0,0.790651 0.414925,1.403406 0.414926,0.59299 1.203285,0.948782 0.809103,0.355794 1.9916415,0.355794 z"
         style="font-style:normal;font-variant:normal;font-weight:bold;font-stretch:normal;font-size:40.5007px;line-height:1.25;font-family:Manrope;-inkscape-font-specification:'Manrope Bold';fill:#d40000;stroke-width:1.01252"
         id="path1138-0" />
      <path
         d="m 45.088415,-11.495307 c -2.185273,0 -4.080098,-0.461214 -5.684477,-1.383641 -1.590547,-0.922426 -2.828407,-2.220412 -3.713583,-3.893958 -0.885174,-1.673545 -1.327761,-3.636996 -1.327761,-5.890353 0,-2.332422 0.435672,-4.348583 1.307015,-6.048484 0.871343,-1.699901 2.095373,-3.011064 3.67209,-3.933491 1.590547,-0.922427 3.464626,-1.38364 5.622239,-1.38364 2.212935,0 4.100846,0.487569 5.663732,1.462706 1.562885,0.961959 2.745423,2.345598 3.547612,4.150919 0.802189,1.805321 1.168706,3.959847 1.099553,6.463576 h -3.11194 v -1.027847 c -0.05532,-2.76728 -0.684624,-4.855917 -1.887911,-6.265912 -1.189453,-1.409995 -2.932139,-2.114993 -5.22806,-2.114993 -2.406568,0 -4.252986,0.74453 -5.539254,2.23359 -1.272438,1.48906 -1.908657,3.610642 -1.908657,6.364745 0,2.688214 0.636219,4.776851 1.908657,6.265912 1.286268,1.475883 3.105024,2.213824 5.456269,2.213824 1.604377,0 3.001292,-0.349204 4.190745,-1.047613 1.203285,-0.711586 2.150697,-1.732844 2.842239,-3.063775 l 2.842239,1.047614 c -0.885174,1.858031 -2.192189,3.30097 -3.921045,4.328817 -1.715025,1.014669 -3.658259,1.522004 -5.829702,1.522004 z m -8.568209,-10.456366 v -2.431253 h 17.115673 v 2.431253 z"
         style="font-size:40.5007px;line-height:1.25;font-family:Raleway;-inkscape-font-specification:Raleway;letter-spacing:-2.23516px;stroke-width:1.01252"
         id="path1140-3"
         sodipodi:nodetypes="scssscscsccccscscsccccsccccc" />
      <path
         d="M 73.082238,-12.088296 V -22.97952 c 0,-1.185977 -0.117562,-2.273123 -0.352687,-3.261437 -0.235125,-1.001492 -0.615473,-1.871209 -1.141044,-2.60915 -0.511742,-0.751119 -1.182537,-1.33093 -2.012389,-1.739433 -0.816019,-0.408503 -1.811841,-0.612755 -2.987463,-0.612755 -1.078806,0 -2.033134,0.177896 -2.862985,0.533689 -0.81602,0.355794 -1.507562,0.869718 -2.074627,1.541771 -0.553233,0.658876 -0.975074,1.462705 -1.265523,2.411488 -0.290447,0.948781 -0.435671,2.029338 -0.435671,3.24167 l -2.157613,-0.454625 c 0,-2.187469 0.401095,-4.025733 1.203285,-5.514794 0.802189,-1.489059 1.908656,-2.615738 3.319403,-3.380035 1.410746,-0.764296 3.028956,-1.146444 4.854628,-1.146444 1.341592,0 2.510298,0.197663 3.506118,0.592988 1.009653,0.395326 1.86025,0.929016 2.551792,1.60107 0.705372,0.672054 1.272437,1.442939 1.701194,2.312655 0.428757,0.856539 0.739951,1.772378 0.933582,2.747515 0.193632,0.961959 0.247137,1.924893 0.290448,2.885877 v 11.741174 z m -16.202837,0 v -21.34759 h 2.759254 v 5.257833 h 0.311194 v 16.089757 z"
         style="font-size:40.5007px;line-height:1.25;font-family:Raleway;-inkscape-font-specification:Raleway;letter-spacing:-2.23516px;stroke-width:1.01252"
         id="path1142-8"
         sodipodi:nodetypes="cscccsccsccsssccccsccccccccc" />
      <path
         d="m 88.72749,-11.495307 c -2.185275,0 -4.080101,-0.461214 -5.684479,-1.383641 -1.590547,-0.922426 -2.828408,-2.220412 -3.713582,-3.893958 -0.885175,-1.673545 -1.327762,-3.636996 -1.327762,-5.890353 0,-2.332422 0.435672,-4.348583 1.307015,-6.048484 0.871343,-1.699901 2.095372,-3.011064 3.672089,-3.933491 1.590548,-0.922427 3.464629,-1.38364 5.622239,-1.38364 2.212936,0 4.100847,0.487569 5.663732,1.462706 1.562886,0.961959 2.745423,2.345598 3.547613,4.150919 0.802184,1.805321 1.168711,3.959847 1.099554,6.463576 h -3.111942 v -1.027847 c -0.05532,-2.76728 -0.684623,-4.855917 -1.887911,-6.265912 -1.189453,-1.409995 -2.932139,-2.114993 -5.22806,-2.114993 -2.406566,0 -4.252984,0.74453 -5.539254,2.23359 -1.272437,1.48906 -1.908657,3.610642 -1.908657,6.364745 0,2.688214 0.636219,4.776851 1.908657,6.265912 1.28627,1.475883 3.105025,2.213824 5.456268,2.213824 1.604379,0 3.001294,-0.349204 4.190747,-1.047613 1.203284,-0.711586 2.150697,-1.732844 2.84224,-3.063775 l 2.842242,1.047614 c -0.885174,1.858031 -2.192192,3.30097 -3.921048,4.328817 -1.715025,1.014669 -3.658259,1.522004 -5.829701,1.522004 z m -8.56821,-10.456366 v -2.431253 h 17.115672 v 2.431253 z"
         style="font-size:40.5007px;line-height:1.25;font-family:Raleway;-inkscape-font-specification:Raleway;letter-spacing:-2.23516px;stroke-width:1.01252"
         id="path1144-3"
         sodipodi:nodetypes="scssscscsccccscscsccccsccccc" />
      <path
         d="m 101.18754,-12.088296 v -21.34759 h 2.73853 v 5.139236 l -0.53941,-0.672054 c 0.24896,-0.632521 0.57399,-1.212332 0.97508,-1.739433 0.4011,-0.540279 0.83678,-0.981727 1.30703,-1.324342 0.58089,-0.487569 1.25862,-0.856539 2.03315,-1.106912 0.77454,-0.26355 1.55598,-0.415091 2.34433,-0.454624 0.78836,-0.05271 1.50756,3e-6 2.15761,0.158129 v 2.727749 c -0.81602,-0.197663 -1.70811,-0.243785 -2.67626,-0.138365 -0.96817,0.10542 -1.86027,0.474391 -2.6763,1.106912 -0.74687,0.553457 -1.30702,1.218922 -1.68045,1.996395 -0.37343,0.764297 -0.6224,1.581303 -0.74687,2.45102 -0.12447,0.856539 -0.18671,1.70649 -0.18671,2.549851 v 10.654028 z"
         style="font-size:40.5007px;line-height:1.25;font-family:Raleway;-inkscape-font-specification:Raleway;letter-spacing:-2.23516px;stroke-width:1.01252"
         id="path1146-6"
         sodipodi:nodetypes="cccccccccccscccscc" />
      <path
         d="m 121.97987,-2.00749 c -1.14797,0 -2.2821,-0.164719 -3.4024,-0.494157 -1.10647,-0.316261 -2.12995,-0.823595 -3.07044,-1.522004 -0.9405,-0.685231 -1.72886,-1.581303 -2.36508,-2.688215 l 2.75925,-1.462705 c 0.62239,1.185977 1.49374,2.035927 2.61404,2.549851 1.13413,0.527101 2.289,0.790651 3.46463,0.790651 1.61821,0 2.92522,-0.289905 3.92103,-0.869716 1.00966,-0.566633 1.7427,-1.409995 2.19911,-2.530085 0.45642,-1.120089 0.67771,-2.516907 0.66388,-4.190453 v -5.692691 h 0.35269 v -15.318872 h 2.71776 v 21.051096 c 0,0.606166 -0.0208,1.185977 -0.0623,1.739433 -0.0277,0.566633 -0.0899,1.120089 -0.18672,1.660368 -0.26279,1.594481 -0.8091,2.905644 -1.63895,3.933491 -0.81602,1.027847 -1.89483,1.792144 -3.23642,2.292889 -1.32776,0.500746 -2.90448,0.751119 -4.73015,0.751119 z m -0.20747,-9.487817 c -2.08846,0 -3.87264,-0.494157 -5.35254,-1.482471 -1.4799,-1.001492 -2.61403,-2.352188 -3.40239,-4.052089 -0.78836,-1.699901 -1.18254,-3.617231 -1.18254,-5.75199 0,-2.121581 0.38726,-4.032322 1.16179,-5.732223 0.78836,-1.699901 1.91558,-3.044008 3.38165,-4.032322 1.46607,-0.988315 3.22258,-1.482472 5.26955,-1.482472 2.10229,0 3.87264,0.487569 5.31105,1.462706 1.43841,0.975137 2.52413,2.312655 3.25717,4.012556 0.74685,1.686723 1.12028,3.610641 1.12028,5.771755 0,2.121581 -0.36651,4.038911 -1.09954,5.75199 -0.73303,1.699901 -1.81184,3.050597 -3.23642,4.052089 -1.42457,0.988314 -3.16726,1.482471 -5.22806,1.482471 z m 0.3112,-2.707981 c 1.59055,0 2.90447,-0.368971 3.94178,-1.106913 1.03731,-0.737941 1.81184,-1.75261 2.32358,-3.044008 0.51175,-1.304575 0.76762,-2.780457 0.76762,-4.427648 0,-1.673545 -0.25587,-3.149428 -0.76762,-4.427648 -0.51174,-1.291398 -1.28627,-2.299479 -2.32358,-3.024242 -1.02348,-0.724763 -2.31666,-1.087145 -3.87955,-1.087145 -1.60437,0 -2.93213,0.375559 -3.98328,1.126678 -1.05115,0.751119 -1.83259,1.772377 -2.34433,3.063774 -0.49791,1.291398 -0.74687,2.740926 -0.74687,4.348583 0,1.620836 0.25587,3.083541 0.76761,4.388115 0.52558,1.291398 1.30702,2.312656 2.34433,3.063775 1.03732,0.751119 2.33742,1.126679 3.90031,1.126679 z"
         style="font-size:40.5007px;line-height:1.25;font-family:Raleway;-inkscape-font-specification:Raleway;letter-spacing:-2.23516px;stroke-width:1.01252"
         id="path1148-0"
         sodipodi:nodetypes="ccccccscscccccsccccccscsscssscsccssscsccsscscss" />
      <path
         d="m 135.75989,-37.487974 v -3.261438 h 3.04971 v 3.261438 z m 0,25.399678 v -21.34759 h 3.04971 v 21.34759 z"
         style="font-size:40.5007px;line-height:1.25;font-family:Raleway;-inkscape-font-specification:Raleway;letter-spacing:-2.23516px;stroke-width:1.01252"
         id="path1150-4" />
      <path
         d="m 152.26093,-11.495307 c -2.18527,0 -4.08009,-0.461214 -5.68447,-1.383641 -1.59055,-0.922426 -2.82841,-2.220412 -3.71359,-3.893958 -0.88517,-1.673545 -1.32776,-3.636996 -1.32776,-5.890353 0,-2.332422 0.43567,-4.348583 1.30702,-6.048484 0.87135,-1.699901 2.09538,-3.011064 3.6721,-3.933491 1.59055,-0.922427 3.46462,-1.38364 5.62223,-1.38364 2.21294,0 4.10085,0.487569 5.66373,1.462706 1.56289,0.961959 2.74543,2.345598 3.54762,4.150919 0.80219,1.805321 1.1687,3.959847 1.09955,6.463576 h -3.11195 v -1.027847 c -0.0553,-2.76728 -0.68464,-4.855917 -1.88791,-6.265912 -1.18945,-1.409995 -2.93213,-2.114993 -5.22806,-2.114993 -2.40657,0 -4.25298,0.74453 -5.53925,2.23359 -1.27243,1.48906 -1.90865,3.610642 -1.90865,6.364745 0,2.688214 0.63622,4.776851 1.90865,6.265912 1.28627,1.475883 3.10502,2.213824 5.45627,2.213824 1.60438,0 3.00129,-0.349204 4.19074,-1.047613 1.20329,-0.711586 2.1507,-1.732844 2.84225,-3.063775 l 2.84224,1.047614 c -0.88517,1.858031 -2.19219,3.30097 -3.92105,4.328817 -1.71503,1.014669 -3.65826,1.522004 -5.82971,1.522004 z m -8.5682,-10.456366 v -2.431253 h 17.11567 v 2.431253 z"
         style="font-size:40.5007px;line-height:1.25;font-family:Raleway;-inkscape-font-specification:Raleway;letter-spacing:-2.23516px;stroke-width:1.01252"
         id="path1152-0"
         sodipodi:nodetypes="scssscscsccccscscsccccsccccc" />
      <path
         d="m 20.300266,-2.142139 h 3.134861 v -47.438259 h -3.134861 z"
         style="font-size:68.0898px;line-height:1.25;font-family:Raleway;-inkscape-font-specification:Raleway;word-spacing:0px;fill:#d40000;stroke-width:0.989513"
         id="path1033-9" />
    </g>
  </g>
</svg>
