<?xml version="1.0" encoding="UTF-8" standalone="no"?>
<svg
   xmlns:osb="http://www.openswatchbook.org/uri/2009/osb"
   xmlns:dc="http://purl.org/dc/elements/1.1/"
   xmlns:cc="http://creativecommons.org/ns#"
   xmlns:rdf="http://www.w3.org/1999/02/22-rdf-syntax-ns#"
   xmlns:svg="http://www.w3.org/2000/svg"
   xmlns="http://www.w3.org/2000/svg"
   xmlns:sodipodi="http://sodipodi.sourceforge.net/DTD/sodipodi-0.dtd"
   xmlns:inkscape="http://www.inkscape.org/namespaces/inkscape"
   width="152.40004mm"
   height="135.46667mm"
   viewBox="0 0 152.40004 135.46667"
   version="1.1"
   id="svg8"
   inkscape:version="1.0.2 (e86c8708, 2021-01-15)"
   sodipodi:docname="exclamation-triangle-solid.svg">
  <defs
     id="defs2">
    <linearGradient
       id="linearGradient886"
       osb:paint="solid">
      <stop
         style="stop-color:#010100;stop-opacity:1;"
         offset="0"
         id="stop884" />
    </linearGradient>
  </defs>
  <sodipodi:namedview
     id="base"
     pagecolor="#ffffff"
     bordercolor="#666666"
     borderopacity="1.0"
     inkscape:pageopacity="0.0"
     inkscape:pageshadow="2"
     inkscape:zoom="0.65213455"
     inkscape:cx="245.29503"
     inkscape:cy="414.11205"
     inkscape:document-units="mm"
     inkscape:current-layer="layer1"
     inkscape:document-rotation="0"
     showgrid="false"
     inkscape:window-width="1573"
     inkscape:window-height="1041"
     inkscape:window-x="1848"
     inkscape:window-y="242"
     inkscape:window-maximized="0"
     fit-margin-top="0"
     fit-margin-left="0"
     fit-margin-right="0"
     fit-margin-bottom="0" />
  <metadata
     id="metadata5">
    <rdf:RDF>
      <cc:Work
         rdf:about="">
        <dc:format>image/svg+xml</dc:format>
        <dc:type
           rdf:resource="http://purl.org/dc/dcmitype/StillImage" />
        <dc:title></dc:title>
      </cc:Work>
    </rdf:RDF>
  </metadata>
  <g
     inkscape:label="Ebene 1"
     inkscape:groupmode="layer"
     id="layer1"
     transform="translate(-28.121405,-35.076188)">
    <path
       fill="currentColor"
       d="m 178.80619,151.4963 c 4.88368,8.46508 -1.24646,19.04656 -11.00059,19.04656 -42.32328,0 -84.646555,0 -126.969832,0 -9.772914,0 -15.874735,-10.59789 -11.00058,-19.04656 L 93.3209,41.422221 c 4.88606,-8.469048 17.12383,-8.453702 22.00116,0 z m -74.48471,-22.75761 c -6.721739,0 -12.170832,5.44909 -12.170832,12.17083 0,6.72174 5.449093,12.17084 12.170832,12.17084 6.72174,0 12.17083,-5.4491 12.17083,-12.17084 0,-6.72174 -5.44909,-12.17083 -12.17083,-12.17083 z M 92.766333,84.990893 94.729012,120.97423 c 0.09181,1.68381 1.484048,3.00196 3.170238,3.00196 h 12.84446 c 1.68619,0 3.07843,-1.31815 3.17024,-3.00196 l 1.96268,-35.983337 c 0.0992,-1.818746 -1.34885,-3.348037 -3.17024,-3.348037 H 95.936306 c -1.821392,0 -3.269192,1.529291 -3.169973,3.348037 z"
       id="path10"
       style="opacity:1;mix-blend-mode:normal;fill:#ff0000;fill-opacity:1;stroke:#010100;stroke-width:0;stroke-miterlimit:4;stroke-dasharray:none;stroke-opacity:1"
       sodipodi:nodetypes="cccccccsssssccssccssc" />
    <path
       style="fill:#ffffff;fill-opacity:1;stroke-width:0;stroke-miterlimit:4;stroke-dasharray:none"
       d="m 362.46642,464.04003 c -3.34592,-3.56156 -3.5679,-5.82287 -7.38144,-75.19489 l -3.93177,-71.5229 3.57286,-3.80313 3.57286,-3.80314 36.72896,0.40996 36.72896,0.40995 2.8537,3.83357 c 2.78734,3.7444 2.76441,5.43441 -0.98573,72.66374 -2.1117,37.8566 -3.83945,69.80239 -3.83945,70.99065 0,1.18826 -1.69373,3.8542 -3.76386,5.92432 -3.72303,3.72304 -4.06949,3.76388 -31.93464,3.76388 -27.73564,0 -28.22407,-0.0567 -31.62045,-3.67201 z"
       id="path4539"
       transform="scale(0.26458333)" />
    <path
       style="fill:#ffffff;fill-opacity:1;stroke-width:0;stroke-miterlimit:4;stroke-dasharray:none"
       d="m 384.54931,576.76783 c -28.03666,-7.39189 -43.16201,-38.42123 -30.92275,-63.43737 16.3911,-33.5022 63.99278,-33.98983 80.92541,-0.82899 4.62683,9.06118 5.61188,24.47726 2.21711,34.69795 -6.77419,20.39517 -32.2658,34.82929 -52.21977,29.56841 z"
       id="path4541"
       transform="scale(0.26458333)" />
  </g>
</svg>
