<?xml version="1.0" encoding="UTF-8" standalone="no"?>
<svg
   xmlns:dc="http://purl.org/dc/elements/1.1/"
   xmlns:cc="http://creativecommons.org/ns#"
   xmlns:rdf="http://www.w3.org/1999/02/22-rdf-syntax-ns#"
   xmlns:svg="http://www.w3.org/2000/svg"
   xmlns="http://www.w3.org/2000/svg"
   xmlns:sodipodi="http://sodipodi.sourceforge.net/DTD/sodipodi-0.dtd"
   xmlns:inkscape="http://www.inkscape.org/namespaces/inkscape"
   height="15.175"
   viewBox="0 0 15.5825 15.175"
   width="15.5825"
   fill="#000000"
   version="1.1"
   id="svg6"
   sodipodi:docname="arrow_back.svg"
   inkscape:version="1.0.2 (e86c8708, 2021-01-15)">
  <metadata
     id="metadata12">
    <rdf:RDF>
      <cc:Work
         rdf:about="">
        <dc:format>image/svg+xml</dc:format>
        <dc:type
           rdf:resource="http://purl.org/dc/dcmitype/StillImage" />
        <dc:title></dc:title>
      </cc:Work>
    </rdf:RDF>
  </metadata>
  <defs
     id="defs10" />
  <sodipodi:namedview
     pagecolor="#ffffff"
     bordercolor="#666666"
     borderopacity="1"
     objecttolerance="10"
     gridtolerance="10"
     guidetolerance="10"
     inkscape:pageopacity="0"
     inkscape:pageshadow="2"
     inkscape:window-width="1680"
     inkscape:window-height="1050"
     id="namedview8"
     showgrid="false"
     fit-margin-top="0"
     fit-margin-left="0"
     fit-margin-right="0"
     fit-margin-bottom="0"
     inkscape:zoom="30.625"
     inkscape:cx="7.5825"
     inkscape:cy="7.5925"
     inkscape:window-x="0"
     inkscape:window-y="0"
     inkscape:window-maximized="0"
     inkscape:current-layer="svg6" />
  <path
     d="m -4.4175,-4.4075 h 24 v 24 h -24 z"
     fill="none"
     id="path2" />
  <path
     d="m 14.5825,6.5925 h -11.17 l 4.88,-4.88 c 0.39,-0.39 0.39,-1.03 0,-1.42 -0.39,-0.39 -1.02,-0.39 -1.41,0 l -6.59,6.59 c -0.39,0.39 -0.39,1.02 0,1.41 l 6.59,6.59 c 0.39,0.39 1.02,0.39 1.41,0 0.39,-0.39 0.39,-1.02 0,-1.41 l -4.88,-4.88 h 11.17 c 0.55,0 1,-0.45 1,-1 0,-0.55 -0.45,-1 -1,-1 z"
     id="path4"
     style="fill:#d40000" />
</svg>
