<?xml version="1.0" encoding="UTF-8" standalone="no"?>
<svg
   xmlns:dc="http://purl.org/dc/elements/1.1/"
   xmlns:cc="http://creativecommons.org/ns#"
   xmlns:rdf="http://www.w3.org/1999/02/22-rdf-syntax-ns#"
   xmlns:svg="http://www.w3.org/2000/svg"
   xmlns="http://www.w3.org/2000/svg"
   xmlns:sodipodi="http://sodipodi.sourceforge.net/DTD/sodipodi-0.dtd"
   xmlns:inkscape="http://www.inkscape.org/namespaces/inkscape"
   height="23.676601"
   viewBox="0 0 21.118172 23.676601"
   width="21.118172"
   fill="#000000"
   version="1.1"
   id="svg867"
   sodipodi:docname="waves_black_24dp.svg"
   inkscape:version="1.0.2 (e86c8708, 2021-01-15)">
  <metadata
     id="metadata873">
    <rdf:RDF>
      <cc:Work
         rdf:about="">
        <dc:format>image/svg+xml</dc:format>
        <dc:type
           rdf:resource="http://purl.org/dc/dcmitype/StillImage" />
      </cc:Work>
    </rdf:RDF>
  </metadata>
  <defs
     id="defs871">
    <inkscape:path-effect
       effect="powerclip"
       id="path-effect961"
       is_visible="true"
       lpeversion="1"
       inverse="true"
       flatten="false"
       hide_clip="false"
       message="F端llregel Gerade-Ungerade im &lt;b&gt;F端llung und Kontur&lt;/b&gt;-Dialog verwenden, wenn das Anwenden des Ausschnitts mit nachfolgendem Umwandeln in Pfade kein Ergebnis bringt" />
    <inkscape:path-effect
       effect="powerclip"
       id="path-effect970"
       is_visible="true"
       lpeversion="1"
       inverse="true"
       flatten="false"
       hide_clip="false"
       message="F端llregel Gerade-Ungerade im &lt;b&gt;F端llung und Kontur&lt;/b&gt;-Dialog verwenden, wenn das Anwenden des Ausschnitts mit nachfolgendem Umwandeln in Pfade kein Ergebnis bringt" />
    <clipPath
       clipPathUnits="userSpaceOnUse"
       id="clipPath884">
      <g
         inkscape:label="Clip"
         id="use886">
        <path
           d="m -2.534523,-6.263266 c 0,1.35 0.42,2.2 0.8,2.95 0.33,0.6499994 0.6,1.1799994 0.6,2.0499994 0,0.9 -0.25,1.4 -0.6,2.05000004 -0.38,0.74999996 -0.8,1.56999996 -0.8,2.94999996 0,1.38 0.42,2.2 0.8,2.95 0.33,0.65 0.6,1.17 0.6,2.05 h 1.94999999 c 0,-1.35 -0.42,-2.2 -0.8,-2.95 -0.33,-0.65 -0.6,-1.17 -0.6,-2.05 0,-0.88 0.25,-1.4 0.6,-2.05 0.38,-0.74999996 0.8,-1.57 0.8,-2.95 0,-1.38 -0.42,-2.1999994 -0.8,-2.9499994 -0.33,-0.65 -0.6,-1.18 -0.6,-2.05 0,-0.9 0.25,-1.4 0.6,-2.05 0.38,-0.75 0.8,-1.5799996 0.8,-2.95 H -1.134523 c 0,0.9 -0.25,1.4000004 -0.6,2.0500004 -0.38,0.7499996 -0.8,1.5999996 -0.8,2.9499996 z m -4.45,0 c 0,1.35 0.43,2.2 0.8,2.95 0.32,0.6499994 0.6,1.1799994 0.6,2.0499994 0,0.9 -0.25,1.4 -0.6,2.05000004 -0.38,0.74999996 -0.8,1.56999996 -0.8,2.94999996 0,1.38 0.43,2.2 0.8,2.95 0.32,0.65 0.6,1.17 0.6,2.05 h 1.95 c 0,-1.35 -0.43,-2.2 -0.8,-2.95 -0.35,-0.65 -0.6,-1.15 -0.6,-2.05 0,-0.9 0.25,-1.4 0.6,-2.05 0.38,-0.74999996 0.8,-1.57 0.8,-2.95 0,-1.38 -0.43,-2.1999994 -0.8,-2.9499994 -0.35,-0.65 -0.6,-1.15 -0.6,-2.05 0,-0.9 0.25,-1.4 0.6,-2.05 0.38,-0.75 0.8,-1.5799996 0.8,-2.95 h -1.95 c 0,0.9 -0.25,1.4000004 -0.6,2.0500004 -0.38,0.7499996 -0.8,1.5999996 -0.8,2.9499996 z m -8.080001,-2.9499996 c -0.38,0.7499996 -0.8,1.5799996 -0.8,2.9499996 0,1.37 0.42,2.2 0.8,2.95 0.32,0.6499994 0.6,1.1799994 0.6,2.0499994 0,0.9 -0.25,1.4 -0.6,2.05000004 -0.37,0.74999996 -0.8,1.56999996 -0.8,2.94999996 0,1.38 0.42,2.2 0.8,2.95 0.33,0.65 0.6,1.17 0.6,2.05 h 1.93 c 0,-1.35 -0.43,-2.2 -0.8,-2.95 -0.33,-0.65 -0.6,-1.17 -0.6,-2.05 0,-0.88 0.25,-1.4 0.6,-2.05 0.38,-0.74999996 0.8,-1.57 0.8,-2.95 0,-1.38 -0.43,-2.1999994 -0.8,-2.9499994 -0.32,-0.65 -0.6,-1.18 -0.6,-2.05 0,-0.9 0.25,-1.4 0.6,-2.05 0.38,-0.75 0.8,-1.5799996 0.8,-2.95 h -1.95 c 0,0.9 -0.25,1.4000004 -0.58,2.0500004 z m 3.63,2.9499996 c 0,1.35 0.43,2.2 0.8,2.95 0.35,0.6499994 0.6,1.1499994 0.6,2.0499994 0,0.9 -0.25,1.4 -0.6,2.05000004 -0.38,0.74999996 -0.8,1.56999996 -0.8,2.94999996 0,1.38 0.43,2.2 0.8,2.95 0.35,0.65 0.6,1.15 0.6,2.05 h 1.950001 c 0,-1.35 -0.43,-2.2 -0.8,-2.95 -0.320001,-0.65 -0.6000007,-1.18 -0.6000007,-2.05 0,-0.87 0.2499997,-1.4 0.6000007,-2.05 0.38,-0.74999996 0.8,-1.57 0.8,-2.95 0,-1.38 -0.43,-2.1999994 -0.8,-2.9499994 -0.320001,-0.65 -0.6000007,-1.18 -0.6000007,-2.05 0,-0.9 0.2499997,-1.4 0.6000007,-2.05 0.38,-0.75 0.8,-1.5799996 0.8,-2.95 h -1.950001 c 0,0.9 -0.25,1.4000004 -0.6,2.0500004 -0.38,0.7499996 -0.8,1.5999996 -0.8,2.9499996 z"
           id="path899"
           style="display:inline;fill:#aa0000" />
      </g>
    </clipPath>
    <clipPath
       clipPathUnits="userSpaceOnUse"
       id="clipPath895">
      <g
         inkscape:label="Clip"
         id="use897">
        <g
           id="g906"
           clip-path="url(#clipPath884)">
          <path
             d="m -2.534523,-6.263266 c 0,1.35 0.42,2.2 0.8,2.95 0.33,0.6499994 0.6,1.1799994 0.6,2.0499994 0,0.9 -0.25,1.4 -0.6,2.05000004 -0.38,0.74999996 -0.8,1.56999996 -0.8,2.94999996 0,1.38 0.42,2.2 0.8,2.95 0.33,0.65 0.6,1.17 0.6,2.05 h 1.94999999 c 0,-1.35 -0.42,-2.2 -0.8,-2.95 -0.33,-0.65 -0.6,-1.17 -0.6,-2.05 0,-0.88 0.25,-1.4 0.6,-2.05 0.38,-0.74999996 0.8,-1.57 0.8,-2.95 0,-1.38 -0.42,-2.1999994 -0.8,-2.9499994 -0.33,-0.65 -0.6,-1.18 -0.6,-2.05 0,-0.9 0.25,-1.4 0.6,-2.05 0.38,-0.75 0.8,-1.5799996 0.8,-2.95 H -1.134523 c 0,0.9 -0.25,1.4000004 -0.6,2.0500004 -0.38,0.7499996 -0.8,1.5999996 -0.8,2.9499996 z m -4.45,0 c 0,1.35 0.43,2.2 0.8,2.95 0.32,0.6499994 0.6,1.1799994 0.6,2.0499994 0,0.9 -0.25,1.4 -0.6,2.05000004 -0.38,0.74999996 -0.8,1.56999996 -0.8,2.94999996 0,1.38 0.43,2.2 0.8,2.95 0.32,0.65 0.6,1.17 0.6,2.05 h 1.95 c 0,-1.35 -0.43,-2.2 -0.8,-2.95 -0.35,-0.65 -0.6,-1.15 -0.6,-2.05 0,-0.9 0.25,-1.4 0.6,-2.05 0.38,-0.74999996 0.8,-1.57 0.8,-2.95 0,-1.38 -0.43,-2.1999994 -0.8,-2.9499994 -0.35,-0.65 -0.6,-1.15 -0.6,-2.05 0,-0.9 0.25,-1.4 0.6,-2.05 0.38,-0.75 0.8,-1.5799996 0.8,-2.95 h -1.95 c 0,0.9 -0.25,1.4000004 -0.6,2.0500004 -0.38,0.7499996 -0.8,1.5999996 -0.8,2.9499996 z m -8.080001,-2.9499996 c -0.38,0.7499996 -0.8,1.5799996 -0.8,2.9499996 0,1.37 0.42,2.2 0.8,2.95 0.32,0.6499994 0.6,1.1799994 0.6,2.0499994 0,0.9 -0.25,1.4 -0.6,2.05000004 -0.37,0.74999996 -0.8,1.56999996 -0.8,2.94999996 0,1.38 0.42,2.2 0.8,2.95 0.33,0.65 0.6,1.17 0.6,2.05 h 1.93 c 0,-1.35 -0.43,-2.2 -0.8,-2.95 -0.33,-0.65 -0.6,-1.17 -0.6,-2.05 0,-0.88 0.25,-1.4 0.6,-2.05 0.38,-0.74999996 0.8,-1.57 0.8,-2.95 0,-1.38 -0.43,-2.1999994 -0.8,-2.9499994 -0.32,-0.65 -0.6,-1.18 -0.6,-2.05 0,-0.9 0.25,-1.4 0.6,-2.05 0.38,-0.75 0.8,-1.5799996 0.8,-2.95 h -1.95 c 0,0.9 -0.25,1.4000004 -0.58,2.0500004 z m 3.63,2.9499996 c 0,1.35 0.43,2.2 0.8,2.95 0.35,0.6499994 0.6,1.1499994 0.6,2.0499994 0,0.9 -0.25,1.4 -0.6,2.05000004 -0.38,0.74999996 -0.8,1.56999996 -0.8,2.94999996 0,1.38 0.43,2.2 0.8,2.95 0.35,0.65 0.6,1.15 0.6,2.05 h 1.950001 c 0,-1.35 -0.43,-2.2 -0.8,-2.95 -0.320001,-0.65 -0.6000007,-1.18 -0.6000007,-2.05 0,-0.87 0.2499997,-1.4 0.6000007,-2.05 0.38,-0.74999996 0.8,-1.57 0.8,-2.95 0,-1.38 -0.43,-2.1999994 -0.8,-2.9499994 -0.320001,-0.65 -0.6000007,-1.18 -0.6000007,-2.05 0,-0.9 0.2499997,-1.4 0.6000007,-2.05 0.38,-0.75 0.8,-1.5799996 0.8,-2.95 h -1.950001 c 0,0.9 -0.25,1.4000004 -0.6,2.0500004 -0.38,0.7499996 -0.8,1.5999996 -0.8,2.9499996 z"
             id="path904"
             style="display:inline;fill:#aa0000" />
        </g>
      </g>
    </clipPath>
    <clipPath
       clipPathUnits="userSpaceOnUse"
       id="clipPath966">
      <rect
         style="display:block;fill:#aa0000;fill-opacity:0.972067"
         id="rect968"
         width="21.777571"
         height="7.351079"
         x="0.79636687"
         y="-1.7765107" />
    </clipPath>
  </defs>
  <sodipodi:namedview
     pagecolor="#ffffff"
     bordercolor="#666666"
     borderopacity="1"
     objecttolerance="10"
     gridtolerance="10"
     guidetolerance="10"
     inkscape:pageopacity="0"
     inkscape:pageshadow="2"
     inkscape:window-width="1699"
     inkscape:window-height="1132"
     id="namedview869"
     showgrid="false"
     inkscape:lockguides="false"
     showguides="true"
     inkscape:zoom="17.000205"
     inkscape:cx="12.179649"
     inkscape:cy="12.343226"
     inkscape:window-x="2258"
     inkscape:window-y="25"
     inkscape:window-maximized="0"
     inkscape:current-layer="svg867"
     inkscape:document-rotation="0"
     inkscape:snap-grids="true" />
  <path
     d="m 1.7603302,22.897338 v -24 H 25.76033 v 24 z"
     fill="none"
     id="path863" />
  <path
     style="fill:#aa0000;stroke-width:0.993995"
     d="m 8.8999996,4.9834256 c 0,1.3338345 0.43,2.1736562 0.8,2.9146753 C 10.05,8.5403169 10.3,9.03433 10.3,9.923553 c 0,0.889223 -0.25,1.383236 -0.6000004,2.025452 -0.38,0.741019 -0.8,1.5512 -0.8,2.914675 0,1.363476 0.43,2.173657 0.8,2.914676 C 10.05,18.420572 10.3,18.914585 10.3,19.803808 h 1.95 c 0,-1.333834 -0.43,-2.173656 -0.8,-2.914675 -0.320001,-0.642217 -0.6,-1.16587 -0.6,-2.025453 0,-0.859582 0.249999,-1.383235 0.6,-2.025452 0.38,-0.741019 0.8,-1.5512 0.8,-2.914675 0,-1.3634756 -0.43,-2.1736559 -0.8,-2.9146751 -0.320001,-0.6422165 -0.6,-1.1658701 -0.6,-2.0254523 0,-0.8892229 0.249999,-1.3832357 0.6,-2.0254523 0.38,-0.7410191 0.8,-1.5610803 0.8,-2.91467517 H 10.3 c 0,0.889223 -0.25,1.38323567 -0.6000004,2.02545227 -0.38,0.7410191 -0.8,1.5808408 -0.8,2.9146752 z"
     id="path891"
     inkscape:original-d="m 8.8999996,4.9834256 c 0,1.3338345 0.43,2.1736562 0.8,2.9146753 C 10.05,8.5403169 10.3,9.03433 10.3,9.923553 c 0,0.889223 -0.25,1.383236 -0.6000004,2.025452 -0.38,0.741019 -0.8,1.5512 -0.8,2.914675 0,1.363476 0.43,2.173657 0.8,2.914676 C 10.05,18.420572 10.3,18.914585 10.3,19.803808 h 1.95 c 0,-1.333834 -0.43,-2.173656 -0.8,-2.914675 -0.320001,-0.642217 -0.6,-1.16587 -0.6,-2.025453 0,-0.859582 0.249999,-1.383235 0.6,-2.025452 0.38,-0.741019 0.8,-1.5512 0.8,-2.914675 0,-1.3634756 -0.43,-2.1736559 -0.8,-2.9146751 -0.320001,-0.6422165 -0.6,-1.1658701 -0.6,-2.0254523 0,-0.8892229 0.249999,-1.3832357 0.6,-2.0254523 0.38,-0.7410191 0.8,-1.5610803 0.8,-2.91467517 H 10.3 c 0,0.889223 -0.25,1.38323567 -0.6000004,2.02545227 -0.38,0.7410191 -0.8,1.5808408 -0.8,2.9146752 z"
     inkscape:path-effect="#path-effect970" />
  <path
     style="fill:#aa0000;stroke-width:0.993995"
     d="m 5.2699996,2.0687504 c -0.38,0.7410191 -0.8,1.5610803 -0.8,2.9146752 0,1.353595 0.42,2.1736562 0.8,2.9146753 0.32,0.642216 0.6,1.1658691 0.6,2.0254521 0,0.889223 -0.25,1.383236 -0.6,2.025452 -0.37,0.741019 -0.8,1.5512 -0.8,2.914675 0,1.363476 0.42,2.173657 0.8,2.914676 0.33,0.642216 0.6,1.15599 0.6,2.025452 h 1.93 c 0,-1.333834 -0.43,-2.173656 -0.8,-2.914675 -0.33,-0.642217 -0.6,-1.15599 -0.6,-2.025453 0,-0.869462 0.25,-1.383235 0.6,-2.025452 0.38,-0.741019 0.8,-1.5512 0.8,-2.914675 0,-1.3634756 -0.43,-2.1736559 -0.8,-2.9146751 -0.32,-0.6422165 -0.6,-1.1658701 -0.6,-2.0254523 0,-0.8892229 0.25,-1.3832357 0.6,-2.0254523 0.38,-0.7410191 0.8,-1.5610803 0.8,-2.91467517 h -1.95 c 0,0.889223 -0.25,1.38323567 -0.58,2.02545227 z"
     id="path889" />
  <path
     style="fill:#aa0000;stroke-width:0.993995"
     d="m 13.35,4.9834256 c 0,1.3338345 0.43,2.1736562 0.8,2.9146753 0.32,0.642216 0.6,1.1658691 0.6,2.0254521 0,0.889223 -0.25,1.383236 -0.6,2.025452 -0.38,0.741019 -0.8,1.5512 -0.8,2.914675 0,1.363476 0.43,2.173657 0.8,2.914676 0.32,0.642216 0.6,1.15599 0.6,2.025452 h 1.95 c 0,-1.333834 -0.43,-2.173656 -0.8,-2.914675 -0.35,-0.642217 -0.6,-1.13623 -0.6,-2.025453 0,-0.889223 0.25,-1.383235 0.6,-2.025452 0.38,-0.741019 0.8,-1.5512 0.8,-2.914675 0,-1.3634756 -0.43,-2.1736559 -0.8,-2.9146751 -0.35,-0.6422165 -0.6,-1.1362293 -0.6,-2.0254523 0,-0.8892229 0.25,-1.3832357 0.6,-2.0254523 0.38,-0.7410191 0.8,-1.5610803 0.8,-2.91467517 h -1.95 c 0,0.889223 -0.25,1.38323567 -0.6,2.02545227 -0.38,0.7410191 -0.8,1.5808408 -0.8,2.9146752 z"
     id="path887"
     inkscape:original-d="m 13.35,4.9834256 c 0,1.3338345 0.43,2.1736562 0.8,2.9146753 0.32,0.642216 0.6,1.1658691 0.6,2.0254521 0,0.889223 -0.25,1.383236 -0.6,2.025452 -0.38,0.741019 -0.8,1.5512 -0.8,2.914675 0,1.363476 0.43,2.173657 0.8,2.914676 0.32,0.642216 0.6,1.15599 0.6,2.025452 h 1.95 c 0,-1.333834 -0.43,-2.173656 -0.8,-2.914675 -0.35,-0.642217 -0.6,-1.13623 -0.6,-2.025453 0,-0.889223 0.25,-1.383235 0.6,-2.025452 0.38,-0.741019 0.8,-1.5512 0.8,-2.914675 0,-1.3634756 -0.43,-2.1736559 -0.8,-2.9146751 -0.35,-0.6422165 -0.6,-1.1362293 -0.6,-2.0254523 0,-0.8892229 0.25,-1.3832357 0.6,-2.0254523 0.38,-0.7410191 0.8,-1.5610803 0.8,-2.91467517 h -1.95 c 0,0.889223 -0.25,1.38323567 -0.6,2.02545227 -0.38,0.7410191 -0.8,1.5808408 -0.8,2.9146752 z"
     inkscape:path-effect="#path-effect970" />
  <rect
     style="fill:#aa0000;fill-opacity:0.972067;stroke:none;stroke-width:0.104756;stroke-miterlimit:4;stroke-dasharray:none;stroke-opacity:1"
     id="rect953"
     width="1.9296581"
     height="21.746943"
     x="19.188513"
     y="0" />
  <rect
     style="fill:#aa0000;fill-opacity:0.972067;stroke:none;stroke-width:0.103199;stroke-miterlimit:4;stroke-dasharray:none;stroke-opacity:1"
     id="rect957"
     width="1.9296581"
     height="21.105455"
     x="-23.676601"
     y="0.012716055"
     transform="rotate(-90)" />
  <path
     style="fill:#aa0000;stroke-width:0.993995"
     d="M 0,4.9401275 C 0,6.273962 0.43,7.1137837 0.80000002,7.8548028 1.12,8.4970188 1.4,9.020672 1.4,9.880255 1.4,10.769478 1.15,11.263491 0.80000002,11.905707 0.42,12.646726 0,13.456907 0,14.820382 0,16.183858 0.43,16.994039 0.80000002,17.735058 1.12,18.377274 1.4,18.891048 1.4,19.76051 h 1.95 c 0,-1.333834 -0.43,-2.173656 -0.8,-2.914675 -0.35,-0.642217 -0.6,-1.13623 -0.6,-2.025453 0,-0.889223 0.25,-1.383235 0.6,-2.025452 0.38,-0.741019 0.8,-1.5512 0.8,-2.914675 C 3.35,8.5167793 2.92,7.706599 2.55,6.9655798 2.2,6.3233633 1.95,5.8293505 1.95,4.9401275 1.95,4.0509046 2.2,3.5568918 2.55,2.9146752 2.93,2.1736561 3.35,1.3535949 3.35,3.2722473e-8 H 1.4 C 1.4,0.88922303 1.15,1.3832357 0.80000002,2.0254523 0.42,2.7664714 0,3.6062931 0,4.9401275 Z"
     id="path959" />
</svg>
