<?xml version="1.0" encoding="UTF-8" standalone="no"?>
<svg
   xmlns:dc="http://purl.org/dc/elements/1.1/"
   xmlns:cc="http://creativecommons.org/ns#"
   xmlns:rdf="http://www.w3.org/1999/02/22-rdf-syntax-ns#"
   xmlns:svg="http://www.w3.org/2000/svg"
   xmlns="http://www.w3.org/2000/svg"
   xmlns:sodipodi="http://sodipodi.sourceforge.net/DTD/sodipodi-0.dtd"
   xmlns:inkscape="http://www.inkscape.org/namespaces/inkscape"
   enable-background="new 0 0 24 24"
   height="18"
   viewBox="0 0 20.967285 18"
   width="20.967285"
   fill="#000000"
   version="1.1"
   id="svg887"
   sodipodi:docname="me.svg"
   inkscape:version="1.0.2 (e86c8708, 2021-01-15)">
  <metadata
     id="metadata893">
    <rdf:RDF>
      <cc:Work
         rdf:about="">
        <dc:format>image/svg+xml</dc:format>
        <dc:type
           rdf:resource="http://purl.org/dc/dcmitype/StillImage" />
        <dc:title></dc:title>
      </cc:Work>
    </rdf:RDF>
  </metadata>
  <defs
     id="defs891" />
  <sodipodi:namedview
     pagecolor="#ffffff"
     bordercolor="#666666"
     borderopacity="1"
     objecttolerance="10"
     gridtolerance="10"
     guidetolerance="10"
     inkscape:pageopacity="0"
     inkscape:pageshadow="2"
     inkscape:window-width="1869"
     inkscape:window-height="1337"
     id="namedview889"
     showgrid="false"
     inkscape:zoom="18.684338"
     inkscape:cx="8.5729541"
     inkscape:cy="2.170643"
     inkscape:window-x="2129"
     inkscape:window-y="25"
     inkscape:window-maximized="0"
     inkscape:current-layer="svg887"
     inkscape:document-rotation="0"
     fit-margin-top="0"
     fit-margin-left="0"
     fit-margin-right="0"
     fit-margin-bottom="0" />
  <g
     id="g875"
     style="fill:none;stroke:#000000;stroke-width:0.3;stroke-miterlimit:4;stroke-dasharray:none;stroke-opacity:1"
     transform="translate(-1.5,-3.5)">
    <path
       d="M 0,0 H 24 V 24 H 0 Z"
       fill="none"
       id="path873"
       style="fill:none;stroke:none;stroke-width:0.3;stroke-miterlimit:4;stroke-dasharray:none;stroke-opacity:1" />
  </g>
  <path
     d="M 9.17,9.53 C 8.95,9.51 8.73,9.5 8.5,9.5 c -2.42,0 -4.68,0.67 -6.61,1.819999 -0.88,0.52 -1.39,1.5 -1.39,2.530001 v 2.649999 H 9.76 C 8.3253988,14.339901 8.0592572,12.003644 9.17,9.53 Z"
     id="path877"
     style="fill:none;stroke:#000000;stroke-width:1;stroke-miterlimit:4;stroke-dasharray:none;stroke-opacity:1"
     sodipodi:nodetypes="cscsccc" />
  <path
     style="fill:none;stroke:#000000;stroke-width:1;stroke-miterlimit:4;stroke-dasharray:none;stroke-opacity:1"
     d="m 8.5,8.5 c 2.210001,0 4.000001,-1.79 4.000001,-4 0,-2.21 -1.79,-4 -4.000001,-4 -2.21,0 -4,1.79 -4,4 0,2.21 1.79,4 4,4 z"
     id="path879"
     sodipodi:nodetypes="sssss" />
  <path
     d="m 19.25,12.5 c 0,-0.219999 -0.03,-0.42 -0.06,-0.629999 L 20.33,10.859999 19.33,9.13 17.880001,9.62 C 17.56,9.35 17.2,9.14 16.8,8.99 L 16.5,7.5 h -1.999999 l -0.3,1.49 c -0.4,0.15 -0.76,0.36 -1.08,0.63 l -1.45,-0.49 -1,1.730001 1.14,1.01 c -0.03,0.21 -0.06,0.41 -0.06,0.629999 0,0.22 0.03,0.42 0.06,0.63 l -1.14,1.010001 1,1.73 1.45,-0.49 c 0.32,0.27 0.68,0.48 1.08,0.63 l 0.3,1.489999 H 16.5 l 0.3,-1.489999 c 0.4,-0.15 0.760001,-0.36 1.080001,-0.63 l 1.449999,0.49 1,-1.73 L 19.19,13.13 c 0.03,-0.209999 0.06,-0.41 0.06,-0.63 z m -3.749999,2 c -1.1,0 -2,-0.899999 -2,-2 0,-1.1 0.9,-2 2,-2 C 16.6,10.5 17.5,11.4 17.5,12.5 c 0,1.100001 -0.9,2 -1.999999,2 z"
     id="path881"
     style="fill:none;stroke:#000000;stroke-width:1;stroke-miterlimit:4;stroke-dasharray:none;stroke-opacity:1"
     sodipodi:nodetypes="sccccccccccccsccccccccccccssssss" />
</svg>
